<?xml version="1.0" encoding="utf-8"?>
<!-- Generator: Adobe Illustrator 22.0.1, SVG Export Plug-In . SVG Version: 6.00 Build 0)  -->
<svg version="1.1" id="Layer_1" xmlns="http://www.w3.org/2000/svg" xmlns:xlink="http://www.w3.org/1999/xlink" x="0px" y="0px"
	 viewBox="0 0 181.8 221.7" style="enable-background:new 0 0 181.8 221.7;" xml:space="preserve">
<style type="text/css">
	.st0{enable-background:new    ;}
	.st1{fill:#234465;}
	.st2{fill:#FFA000;}
</style>
<title>SoftUni_Logo</title>
<g>
	<g class="st0">
		<path class="st1" d="M27.6,154.1c-0.2,0.3-0.4,0.6-0.6,0.7c-0.2,0.2-0.5,0.2-0.8,0.2c-0.3,0-0.6-0.1-1-0.3
			c-0.3-0.2-0.7-0.4-1.2-0.6c-0.4-0.2-0.9-0.4-1.5-0.6c-0.6-0.2-1.2-0.3-1.9-0.3c-1.2,0-2.2,0.3-2.8,0.8c-0.6,0.5-0.9,1.3-0.9,2.1
			c0,0.6,0.2,1.1,0.6,1.4c0.4,0.4,0.8,0.7,1.4,1c0.6,0.3,1.3,0.5,2,0.8c0.8,0.2,1.5,0.5,2.3,0.8s1.6,0.6,2.3,1
			c0.8,0.4,1.4,0.9,2,1.4c0.6,0.6,1.1,1.3,1.4,2.1c0.4,0.8,0.6,1.9,0.6,3c0,1.3-0.2,2.5-0.7,3.7c-0.4,1.1-1.1,2.1-2,3
			c-0.9,0.9-1.9,1.5-3.2,2s-2.7,0.7-4.3,0.7c-0.9,0-1.8-0.1-2.7-0.3c-0.9-0.2-1.8-0.4-2.7-0.8c-0.9-0.3-1.7-0.7-2.4-1.2
			c-0.8-0.4-1.4-1-2-1.5l2-3.1c0.2-0.2,0.4-0.4,0.6-0.6c0.3-0.1,0.5-0.2,0.8-0.2c0.4,0,0.8,0.1,1.2,0.4c0.4,0.3,0.8,0.5,1.3,0.8
			c0.5,0.3,1.1,0.6,1.7,0.8c0.6,0.3,1.4,0.4,2.3,0.4c1.2,0,2.1-0.3,2.8-0.8c0.7-0.5,1-1.4,1-2.5c0-0.7-0.2-1.2-0.6-1.6
			c-0.4-0.4-0.8-0.8-1.4-1c-0.6-0.3-1.3-0.5-2-0.7c-0.8-0.2-1.5-0.4-2.3-0.7c-0.8-0.3-1.6-0.6-2.3-0.9c-0.8-0.4-1.4-0.9-2-1.5
			c-0.6-0.6-1.1-1.4-1.4-2.3c-0.4-0.9-0.6-2-0.6-3.3c0-1.1,0.2-2.1,0.6-3.1c0.4-1,1.1-1.9,1.9-2.7c0.8-0.8,1.9-1.4,3.1-1.9
			c1.2-0.5,2.6-0.7,4.2-0.7c0.9,0,1.7,0.1,2.6,0.2s1.6,0.3,2.4,0.6c0.8,0.3,1.4,0.6,2.1,0.9c0.6,0.4,1.2,0.8,1.7,1.3L27.6,154.1z"/>
	</g>
	<g class="st0">
		<path class="st1" d="M42.2,156.2c1.5,0,3,0.3,4.2,0.7c1.3,0.5,2.3,1.2,3.3,2.1s1.6,2,2.1,3.3c0.5,1.3,0.8,2.7,0.8,4.3
			c0,1.6-0.3,3.1-0.8,4.4s-1.2,2.4-2.1,3.3c-0.9,0.9-2,1.6-3.3,2.1c-1.3,0.5-2.7,0.7-4.2,0.7c-1.6,0-3-0.3-4.2-0.7
			c-1.3-0.5-2.4-1.2-3.3-2.1c-0.9-0.9-1.6-2-2.1-3.3c-0.5-1.3-0.8-2.8-0.8-4.4c0-1.6,0.3-3,0.8-4.3c0.5-1.3,1.2-2.4,2.1-3.3
			c0.9-0.9,2-1.6,3.3-2.1C39.2,156.5,40.6,156.2,42.2,156.2z M42.2,172.6c1.4,0,2.4-0.5,3.1-1.5c0.7-1,1-2.5,1-4.5
			c0-2-0.3-3.5-1-4.5c-0.7-1-1.7-1.5-3.1-1.5s-2.5,0.5-3.1,1.5c-0.7,1-1,2.5-1,4.5c0,2,0.3,3.5,1,4.5
			C39.7,172.1,40.7,172.6,42.2,172.6z"/>
	</g>
	<g class="st0">
		<path class="st1" d="M75.8,160.7v10.1c0,0.5,0.1,0.9,0.3,1.2c0.2,0.3,0.6,0.4,1,0.4c0.2,0,0.4,0,0.6-0.1c0.1-0.1,0.3-0.1,0.4-0.2
			c0.1-0.1,0.2-0.1,0.3-0.2c0.1-0.1,0.2-0.1,0.3-0.1c0.2,0,0.3,0.1,0.4,0.1c0.1,0.1,0.2,0.2,0.3,0.4l1.8,2.9c-0.8,0.6-1.7,1-2.6,1.3
			c-1,0.3-2,0.4-3,0.4c-1,0-1.8-0.1-2.6-0.4c-0.7-0.3-1.4-0.7-1.9-1.2c-0.5-0.5-0.9-1.1-1.1-1.9c-0.3-0.7-0.4-1.5-0.4-2.5v-10.5
			h-7.2v16.1h-6.1v-16.1l-1.3-0.3c-0.4-0.1-0.8-0.3-1.1-0.5s-0.4-0.6-0.4-1v-2.4h2.8v-1.1c0-1.2,0.2-2.2,0.6-3.1
			c0.4-0.9,0.9-1.7,1.6-2.4c0.7-0.7,1.6-1.2,2.6-1.5c1-0.4,2.1-0.6,3.4-0.6c0.5,0,0.9,0,1.4,0.1c0.4,0.1,0.9,0.1,1.3,0.3l-0.1,3
			c0,0.2-0.1,0.4-0.2,0.5c-0.1,0.1-0.2,0.3-0.4,0.3c-0.1,0.1-0.3,0.1-0.5,0.2c-0.2,0-0.3,0.1-0.5,0.1c-0.5,0-1,0.1-1.4,0.2
			c-0.4,0.1-0.8,0.3-1.1,0.6c-0.3,0.3-0.5,0.6-0.6,1.1c-0.1,0.4-0.2,1-0.2,1.6v0.9H70l1.2-5c0.2-0.6,0.6-0.9,1.3-0.9h3.2v5.9h5v4.2
			L75.8,160.7L75.8,160.7z"/>
	</g>
	<g class="st0">
		<path class="st1" d="M113.3,156.5l-6.3,20.3h-4.9c-0.3,0-0.5-0.1-0.7-0.2c-0.2-0.2-0.3-0.4-0.4-0.8l-2.9-10.1
			c-0.1-0.4-0.3-0.9-0.4-1.3c-0.1-0.4-0.2-0.9-0.3-1.3c-0.1,0.4-0.2,0.9-0.3,1.4s-0.3,0.9-0.4,1.4l-2.9,10.1c-0.2,0.7-0.6,1-1.3,1
			h-4.7l-6.3-20.3h4.8c0.4,0,0.8,0.1,1.1,0.3c0.3,0.2,0.5,0.4,0.6,0.8l2,9.1c0.2,0.7,0.3,1.4,0.4,2c0.1,0.6,0.3,1.3,0.4,2
			c0.2-0.6,0.4-1.3,0.5-2c0.2-0.6,0.4-1.3,0.6-2l2.5-9.1c0.1-0.3,0.3-0.6,0.6-0.8c0.3-0.2,0.6-0.3,1-0.3h2.7c0.4,0,0.8,0.1,1.1,0.3
			c0.3,0.2,0.5,0.4,0.6,0.8l2.4,9.1c0.2,0.7,0.4,1.4,0.6,2c0.2,0.6,0.4,1.3,0.5,2c0.1-0.6,0.2-1.3,0.4-2c0.1-0.6,0.3-1.3,0.5-2
			l2.1-9.1c0.1-0.3,0.3-0.6,0.6-0.8c0.3-0.2,0.6-0.3,1-0.3L113.3,156.5L113.3,156.5z"/>
	</g>
	<g class="st0">
		<path class="st1" d="M114.7,159.3c1.2-1.1,2.6-1.9,4.1-2.4c1.5-0.5,3.1-0.8,4.8-0.8c1.2,0,2.3,0.2,3.3,0.6c1,0.4,1.8,0.9,2.5,1.7
			c0.7,0.7,1.2,1.6,1.6,2.5c0.4,1,0.6,2,0.6,3.2v12.7h-2.8c-0.6,0-1-0.1-1.3-0.2c-0.3-0.1-0.5-0.5-0.7-1l-0.4-1.1
			c-0.5,0.4-1,0.8-1.5,1.1c-0.5,0.3-0.9,0.6-1.4,0.8c-0.5,0.2-1,0.4-1.6,0.5c-0.6,0.1-1.2,0.2-1.9,0.2c-0.9,0-1.8-0.1-2.5-0.4
			c-0.8-0.3-1.4-0.6-1.9-1.1c-0.5-0.5-0.9-1.1-1.2-1.8s-0.4-1.5-0.4-2.4c0-0.7,0.2-1.5,0.6-2.2c0.4-0.8,1-1.4,1.9-2.1
			c0.9-0.6,2.1-1.1,3.7-1.6c1.5-0.4,3.5-0.6,5.8-0.7v-0.9c0-1.2-0.3-2-0.7-2.6c-0.5-0.5-1.2-0.8-2.1-0.8c-0.7,0-1.3,0.1-1.8,0.2
			c-0.4,0.2-0.9,0.3-1.2,0.5c-0.4,0.2-0.7,0.4-1.1,0.5c-0.4,0.2-0.8,0.2-1.2,0.2c-0.4,0-0.8-0.1-1.1-0.3c-0.3-0.2-0.5-0.4-0.7-0.8
			L114.7,159.3z M125.6,168.6c-1.2,0.1-2.2,0.2-3,0.3c-0.8,0.1-1.4,0.4-1.9,0.6c-0.4,0.2-0.8,0.5-0.9,0.8c-0.2,0.3-0.3,0.6-0.3,1
			c0,0.7,0.2,1.2,0.6,1.4c0.4,0.3,0.9,0.4,1.7,0.4c0.8,0,1.5-0.1,2.1-0.4c0.6-0.3,1.2-0.7,1.8-1.3L125.6,168.6L125.6,168.6z"/>
	</g>
	<g class="st0">
		<path class="st1" d="M141.1,159.7c0.6-1.1,1.3-2,2.2-2.6c0.8-0.6,1.8-0.9,2.8-0.9c0.9,0,1.6,0.2,2.2,0.6l-0.4,4.5
			c-0.1,0.3-0.2,0.5-0.3,0.6c-0.1,0.1-0.4,0.2-0.6,0.2c-0.1,0-0.3,0-0.4,0c-0.2,0-0.3,0-0.5-0.1c-0.2,0-0.4,0-0.6-0.1
			c-0.2,0-0.4,0-0.5,0c-0.9,0-1.6,0.2-2.1,0.7s-1,1.1-1.3,2v12.3h-6.1v-20.3h3.6c0.3,0,0.6,0,0.8,0.1c0.2,0.1,0.4,0.1,0.5,0.3
			c0.1,0.1,0.3,0.3,0.3,0.4c0.1,0.2,0.1,0.4,0.2,0.7L141.1,159.7z"/>
	</g>
	<g class="st0">
		<path class="st1" d="M155,167.7c0.2,1.7,0.7,2.9,1.5,3.7c0.8,0.8,1.9,1.1,3.2,1.1c0.7,0,1.3-0.1,1.8-0.3c0.5-0.2,1-0.4,1.4-0.6
			s0.8-0.4,1.1-0.6c0.3-0.2,0.7-0.3,1.1-0.3c0.5,0,0.8,0.2,1.1,0.5l1.8,2.2c-0.6,0.7-1.3,1.3-2,1.8c-0.7,0.4-1.5,0.8-2.2,1.1
			s-1.5,0.4-2.3,0.5c-0.8,0.1-1.5,0.1-2.2,0.1c-1.4,0-2.8-0.2-4-0.7s-2.3-1.1-3.3-2.1s-1.7-2-2.2-3.4c-0.5-1.4-0.8-2.9-0.8-4.7
			c0-1.4,0.2-2.6,0.7-3.8c0.5-1.2,1.1-2.3,2-3.2c0.9-0.9,1.9-1.6,3.1-2.2c1.2-0.5,2.6-0.8,4.2-0.8c1.3,0,2.6,0.2,3.7,0.6
			c1.1,0.4,2.1,1,2.9,1.8c0.8,0.8,1.4,1.8,1.9,2.9c0.4,1.1,0.7,2.5,0.7,3.9c0,0.4,0,0.8-0.1,1.1c0,0.3-0.1,0.5-0.2,0.7
			c-0.1,0.2-0.3,0.3-0.4,0.4c-0.2,0.1-0.4,0.1-0.7,0.1L155,167.7L155,167.7L155,167.7z M162.6,164.2c0-0.5-0.1-0.9-0.2-1.4
			c-0.1-0.4-0.3-0.9-0.6-1.2c-0.3-0.4-0.6-0.6-1.1-0.9c-0.4-0.2-1-0.3-1.7-0.3c-1.1,0-2,0.3-2.7,1c-0.6,0.7-1.1,1.6-1.3,2.8
			L162.6,164.2L162.6,164.2z"/>
	</g>
	<g class="st0">
		<path class="st1" d="M13.3,209.8c0.9,0,1.7-0.1,2.4-0.4c0.7-0.3,1.3-0.7,1.8-1.3c0.5-0.6,0.9-1.2,1.1-2s0.4-1.7,0.4-2.7v-16.9h6.6
			v16.9c0,1.8-0.3,3.3-0.9,4.8c-0.6,1.4-1.4,2.7-2.4,3.8c-1.1,1.1-2.3,1.9-3.8,2.5s-3.2,0.9-5.1,0.9s-3.6-0.3-5.1-0.9
			c-1.5-0.6-2.8-1.4-3.8-2.5c-1.1-1.1-1.9-2.3-2.4-3.8c-0.6-1.4-0.8-3.1-0.8-4.8v-16.9h6.6v16.9c0,1,0.1,1.9,0.4,2.7
			c0.3,0.8,0.6,1.4,1.1,2c0.5,0.6,1.1,1,1.8,1.3C11.6,209.7,12.4,209.8,13.3,209.8z"/>
	</g>
	<g class="st0">
		<path class="st1" d="M34.9,196.9c0.4-0.4,0.8-0.7,1.2-1s0.9-0.6,1.3-0.8c0.5-0.2,1-0.4,1.5-0.5c0.6-0.1,1.2-0.2,1.8-0.2
			c1.1,0,2.1,0.2,3,0.6c0.9,0.4,1.6,0.9,2.2,1.6c0.6,0.7,1,1.5,1.3,2.5c0.3,0.9,0.4,2,0.4,3.1v12.9h-6.1v-12.9c0-1-0.2-1.8-0.7-2.3
			c-0.4-0.6-1.1-0.8-2-0.8c-0.7,0-1.3,0.1-1.9,0.4c-0.6,0.3-1.1,0.7-1.7,1.1v14.5h-6.1v-20.3h3.8c0.8,0,1.3,0.3,1.5,1L34.9,196.9z"
			/>
		<path class="st1" d="M58.5,189.2c0,0.5-0.1,0.9-0.3,1.4c-0.2,0.4-0.5,0.8-0.8,1.1c-0.3,0.3-0.7,0.6-1.2,0.8
			c-0.4,0.2-0.9,0.3-1.4,0.3c-0.5,0-0.9-0.1-1.4-0.3c-0.4-0.2-0.8-0.4-1.1-0.8c-0.3-0.3-0.6-0.7-0.8-1.1s-0.3-0.9-0.3-1.4
			c0-0.5,0.1-0.9,0.3-1.4c0.2-0.4,0.4-0.8,0.8-1.1c0.3-0.3,0.7-0.6,1.1-0.8c0.4-0.2,0.9-0.3,1.4-0.3s1,0.1,1.4,0.3
			c0.4,0.2,0.8,0.4,1.2,0.8c0.3,0.3,0.6,0.7,0.8,1.1C58.4,188.3,58.5,188.7,58.5,189.2z M57.8,194.7V215h-6.1v-20.3H57.8z"/>
	</g>
	<g class="st0">
		<path class="st1" d="M81.2,194.7L73.3,215h-5.5L60,194.7h5c0.4,0,0.8,0.1,1.1,0.3c0.3,0.2,0.5,0.4,0.6,0.8l2.8,9.1
			c0.3,0.8,0.5,1.5,0.7,2.2c0.2,0.7,0.4,1.4,0.5,2.1c0.3-1.4,0.7-2.8,1.2-4.3l2.9-9.1c0.1-0.3,0.3-0.6,0.6-0.8s0.6-0.3,1-0.3
			L81.2,194.7L81.2,194.7z"/>
	</g>
	<g class="st0">
		<path class="st1" d="M87.5,206c0.2,1.7,0.7,2.9,1.5,3.7c0.8,0.8,1.9,1.1,3.2,1.1c0.7,0,1.3-0.1,1.8-0.3c0.5-0.2,1-0.4,1.4-0.6
			s0.8-0.4,1.1-0.6c0.3-0.2,0.7-0.3,1.1-0.3c0.5,0,0.8,0.2,1.1,0.5l1.8,2.2c-0.6,0.7-1.3,1.3-2,1.8c-0.7,0.4-1.5,0.8-2.2,1.1
			c-0.8,0.3-1.5,0.4-2.3,0.5s-1.5,0.1-2.2,0.1c-1.4,0-2.8-0.2-4-0.7c-1.3-0.5-2.3-1.1-3.3-2.1c-0.9-0.9-1.7-2-2.2-3.4
			c-0.5-1.4-0.8-2.9-0.8-4.7c0-1.4,0.2-2.6,0.7-3.8c0.5-1.2,1.1-2.3,2-3.2c0.9-0.9,1.9-1.6,3.1-2.2c1.2-0.5,2.6-0.8,4.2-0.8
			c1.3,0,2.6,0.2,3.7,0.6c1.1,0.4,2.1,1,2.9,1.8c0.8,0.8,1.4,1.8,1.9,2.9c0.4,1.1,0.7,2.5,0.7,3.9c0,0.4,0,0.8-0.1,1.1
			c0,0.3-0.1,0.5-0.2,0.7c-0.1,0.2-0.3,0.3-0.4,0.4c-0.2,0.1-0.4,0.1-0.7,0.1L87.5,206L87.5,206z M95.1,202.5c0-0.5-0.1-0.9-0.2-1.4
			c-0.1-0.4-0.3-0.9-0.6-1.2c-0.3-0.4-0.6-0.6-1.1-0.9c-0.4-0.2-1-0.3-1.7-0.3c-1.1,0-2,0.3-2.7,1c-0.6,0.7-1.1,1.6-1.3,2.8
			L95.1,202.5L95.1,202.5z"/>
		<path class="st1" d="M109.2,197.9c0.6-1.1,1.3-2,2.2-2.6c0.8-0.6,1.8-0.9,2.8-0.9c0.9,0,1.6,0.2,2.2,0.6l-0.4,4.5
			c-0.1,0.3-0.2,0.5-0.3,0.6c-0.1,0.1-0.4,0.2-0.6,0.2c-0.1,0-0.3,0-0.4,0c-0.2,0-0.3,0-0.5-0.1c-0.2,0-0.4,0-0.6-0.1
			c-0.2,0-0.4,0-0.5,0c-0.9,0-1.6,0.2-2.1,0.7c-0.5,0.5-1,1.1-1.3,2V215h-6.1v-20.3h3.6c0.3,0,0.6,0,0.8,0.1
			c0.2,0.1,0.4,0.1,0.5,0.3c0.1,0.1,0.3,0.3,0.3,0.4c0.1,0.2,0.1,0.4,0.2,0.7L109.2,197.9z"/>
		<path class="st1" d="M131.4,199.2c-0.2,0.3-0.3,0.4-0.5,0.5c-0.2,0.1-0.4,0.2-0.7,0.2s-0.6-0.1-0.9-0.2c-0.3-0.1-0.6-0.3-0.9-0.4
			c-0.3-0.1-0.7-0.3-1.1-0.4c-0.4-0.1-0.9-0.2-1.4-0.2c-0.8,0-1.4,0.1-1.8,0.4s-0.6,0.7-0.6,1.2c0,0.4,0.1,0.7,0.4,0.9
			c0.3,0.3,0.6,0.5,1.1,0.7c0.4,0.2,0.9,0.4,1.5,0.5c0.6,0.2,1.1,0.4,1.7,0.6c0.6,0.2,1.2,0.4,1.7,0.7c0.6,0.3,1.1,0.6,1.5,1
			s0.8,0.9,1.1,1.5c0.3,0.6,0.4,1.3,0.4,2.1c0,1-0.2,1.9-0.6,2.8c-0.4,0.8-0.9,1.6-1.6,2.2c-0.7,0.6-1.6,1.1-2.7,1.4
			c-1.1,0.3-2.3,0.5-3.7,0.5c-0.7,0-1.4-0.1-2.1-0.2c-0.7-0.1-1.4-0.3-2-0.5c-0.6-0.2-1.3-0.5-1.8-0.8c-0.6-0.3-1-0.6-1.4-1l1.4-2.2
			c0.2-0.3,0.4-0.5,0.6-0.6c0.3-0.1,0.6-0.2,0.9-0.2s0.7,0.1,0.9,0.2c0.3,0.2,0.6,0.3,0.9,0.5c0.3,0.2,0.7,0.4,1.1,0.5
			c0.4,0.2,1,0.2,1.6,0.2c0.5,0,0.9-0.1,1.2-0.1c0.3-0.1,0.6-0.2,0.8-0.4c0.2-0.2,0.3-0.4,0.4-0.6c0.1-0.2,0.1-0.4,0.1-0.6
			c0-0.4-0.1-0.7-0.4-1c-0.3-0.3-0.6-0.5-1.1-0.7c-0.4-0.2-0.9-0.4-1.5-0.5c-0.6-0.2-1.1-0.4-1.7-0.6c-0.6-0.2-1.2-0.4-1.7-0.8
			c-0.6-0.3-1.1-0.7-1.5-1.1c-0.4-0.4-0.8-1-1.1-1.6c-0.3-0.6-0.4-1.4-0.4-2.4c0-0.9,0.2-1.7,0.5-2.5s0.8-1.4,1.5-2
			c0.7-0.6,1.5-1.1,2.5-1.4c1-0.3,2.2-0.5,3.5-0.5c0.7,0,1.4,0.1,2.1,0.2c0.7,0.1,1.3,0.3,1.9,0.6c0.6,0.2,1.1,0.5,1.6,0.8
			c0.5,0.3,0.9,0.7,1.3,1.1L131.4,199.2z"/>
		<path class="st1" d="M142.7,189.2c0,0.5-0.1,0.9-0.3,1.4s-0.5,0.8-0.8,1.1s-0.7,0.6-1.2,0.8c-0.4,0.2-0.9,0.3-1.4,0.3
			c-0.5,0-0.9-0.1-1.4-0.3c-0.4-0.2-0.8-0.4-1.1-0.8c-0.3-0.3-0.6-0.7-0.8-1.1s-0.3-0.9-0.3-1.4c0-0.5,0.1-0.9,0.3-1.4
			c0.2-0.4,0.4-0.8,0.8-1.1c0.3-0.3,0.7-0.6,1.1-0.8c0.4-0.2,0.9-0.3,1.4-0.3s1,0.1,1.4,0.3s0.8,0.4,1.2,0.8
			c0.3,0.3,0.6,0.7,0.8,1.1C142.7,188.3,142.7,188.7,142.7,189.2z M142.1,194.7V215h-6.1v-20.3H142.1z"/>
		<path class="st1" d="M153.6,215.3c-1,0-1.8-0.1-2.6-0.4c-0.7-0.3-1.4-0.7-1.9-1.2c-0.5-0.5-0.9-1.1-1.1-1.9
			c-0.3-0.7-0.4-1.5-0.4-2.5v-10.5h-1.7c-0.3,0-0.6-0.1-0.8-0.3c-0.2-0.2-0.3-0.5-0.3-0.9v-2.4l3.2-0.6l1.2-5
			c0.2-0.6,0.6-0.9,1.3-0.9h3.2v6h5v4.2h-5V209c0,0.5,0.1,0.9,0.3,1.2c0.2,0.3,0.6,0.4,1,0.4c0.2,0,0.4,0,0.6-0.1
			c0.1-0.1,0.3-0.1,0.4-0.2c0.1-0.1,0.2-0.1,0.3-0.2c0.1-0.1,0.2-0.1,0.3-0.1c0.2,0,0.3,0.1,0.4,0.1c0.1,0.1,0.2,0.2,0.3,0.4
			l1.8,2.9c-0.8,0.6-1.7,1-2.6,1.3C155.6,215.2,154.7,215.3,153.6,215.3z"/>
	</g>
	<g class="st0">
		<path class="st1" d="M180.7,194.7l-10.8,25.6c-0.2,0.4-0.4,0.7-0.7,0.9c-0.3,0.2-0.7,0.3-1.3,0.3h-4.5l3.9-8.2l-8.1-18.5h5.3
			c0.5,0,0.8,0.1,1.1,0.3c0.3,0.2,0.4,0.4,0.6,0.8l3.3,8.7c0.3,0.8,0.6,1.6,0.8,2.5c0.1-0.4,0.3-0.8,0.4-1.3
			c0.1-0.4,0.3-0.8,0.4-1.2l3-8.7c0.1-0.3,0.3-0.6,0.6-0.8c0.3-0.2,0.6-0.3,1-0.3L180.7,194.7L180.7,194.7z"/>
	</g>
	<g id="Layer_2_2_">
		<polygon class="st2" points="166.8,35.9 102.9,1.9 102.9,21.5 145,44.6 102.9,66 102.9,85.4 129.9,71.7 129.9,96.7 91.1,115.9 
			91.1,115.9 91,115.9 52.3,96.7 52.3,71.7 79.2,85.4 79.2,66 37.1,44.6 79.2,21.5 79.2,1.9 14.1,36.5 14.1,52.3 35,62.9 35,107.4 
			91.1,135.3 147.2,107.4 147.2,62.9 166.8,52.9 		"/>
	</g>
</g>
</svg>
